<?xml version="1.0" encoding="UTF-8" standalone="no"?>
<!-- Created with Inkscape (http://www.inkscape.org/) -->

<svg
   xmlns:dc="http://purl.org/dc/elements/1.1/"
   xmlns:cc="http://creativecommons.org/ns#"
   xmlns:rdf="http://www.w3.org/1999/02/22-rdf-syntax-ns#"
   xmlns:svg="http://www.w3.org/2000/svg"
   xmlns="http://www.w3.org/2000/svg"
   xmlns:xlink="http://www.w3.org/1999/xlink"
   xmlns:sodipodi="http://sodipodi.sourceforge.net/DTD/sodipodi-0.dtd"
   xmlns:inkscape="http://www.inkscape.org/namespaces/inkscape"
   width="150mm"
   height="150mm"
   viewBox="0 0 150 150"
   version="1.1"
   id="svg8"
   inkscape:version="0.92.4 (5da689c313, 2019-01-14)"
   sodipodi:docname="logo.svg">
  <defs
     id="defs2">
    <clipPath
       clipPathUnits="userSpaceOnUse"
       id="clipPath4616">
      <use
         x="0"
         y="0"
         xlink:href="#g4612"
         id="use4618"
         width="100%"
         height="100%" />
    </clipPath>
  </defs>
  <sodipodi:namedview
     id="base"
     pagecolor="#ffffff"
     bordercolor="#666666"
     borderopacity="1.0"
     inkscape:pageopacity="0.0"
     inkscape:pageshadow="2"
     inkscape:zoom="0.49497475"
     inkscape:cx="-163.76085"
     inkscape:cy="452.1512"
     inkscape:document-units="mm"
     inkscape:current-layer="layer1"
     showgrid="false"
     inkscape:window-width="1920"
     inkscape:window-height="1137"
     inkscape:window-x="-8"
     inkscape:window-y="-8"
     inkscape:window-maximized="1" />
  <metadata
     id="metadata5">
    <rdf:RDF>
      <cc:Work
         rdf:about="">
        <dc:format>image/svg+xml</dc:format>
        <dc:type
           rdf:resource="http://purl.org/dc/dcmitype/StillImage" />
        <dc:title />
      </cc:Work>
    </rdf:RDF>
  </metadata>
  <g
     inkscape:label="Layer 1"
     inkscape:groupmode="layer"
     id="layer1"
     style="display:inline"
     transform="translate(0,-147)">
    <g
       id="g4575"
       transform="translate(-14.174107,64.255952)">
      <g
         id="g4614"
         clip-path="url(#clipPath4616)">
        <g
           inkscape:label="Clip"
           id="g4612" />
      </g>
    </g>
    <g
       id="g855"
       transform="translate(-17.807478,87.903467)">
      <path
         inkscape:connector-curvature="0"
         id="path4622"
         transform="matrix(0.26458333,0,0,0.26458333,-14.174107,64.255952)"
         d="m 659.56055,188.28906 c -0.30027,0.0148 -0.8988,0.15453 -1.53907,0.36719 -3.62672,1.20458 -6.33139,1.48935 -17.20898,1.8125 -11.64986,0.34605 -15.39926,0.75425 -18.67773,2.03906 -5.85676,2.29523 -9.17724,5.55337 -11.12305,10.91407 -0.89681,2.47069 -0.9411,3.3409 -0.23633,4.71874 1.92881,3.7708 5.808,6.27731 11.26367,7.2793 2.33711,0.42924 7.91105,0.0831 10.77344,-0.66992 3.29405,-0.86657 7.26264,-2.51862 7.11523,-2.96094 -0.063,-0.18901 -0.94322,-0.57307 -1.95507,-0.85351 -0.69457,-0.19238 -1.2932,-0.41848 -1.625,-0.59571 -0.0944,-0.15846 -0.0564,-0.34979 0.15234,-0.58203 0.56072,-0.39404 1.63157,-1.02491 2.91406,-1.69531 7.14475,-3.73463 10.86106,-6.6864 15.08203,-11.98242 2.89977,-3.63829 5.51589,-7.50173 5.25586,-7.76172 -0.0245,-0.0245 -0.0913,-0.0342 -0.1914,-0.0293 z"
         style="display:inline;fill:#008000;fill-opacity:1;stroke-width:0.31999999" />
      <path
         inkscape:connector-curvature="0"
         id="path4579"
         transform="matrix(0.26458333,0,0,0.26458333,-14.174107,64.255952)"
         d="m 589.50977,233.08984 c -4.14258,0.0729 -8.24989,0.54787 -11.25391,1.40625 -2.20845,0.63106 -8.96289,4.9777 -8.96289,5.76758 0,0.66157 2.27232,7.7388 3.42383,10.66211 2.5344,6.43404 4.78126,10.66194 7.22461,13.59961 5.57427,6.70193 15.8637,12.2923 25.35156,13.77539 1.40802,0.2202 4.97819,0.41274 7.93359,0.43164 5.67886,0.0335 8.65739,-0.37023 12.06641,-1.63672 1.92019,-0.71334 7.98656,-2.57218 11.03906,-3.38281 1.30568,-0.34666 3.37937,-0.51796 6.48047,-0.5293 2.89402,-0.0117 4.56066,-0.13902 4.56055,-0.34765 -3.8e-4,-0.7609 -4.60551,-4.75175 -8.25782,-7.15625 -3.39492,-2.23506 -6.4303,-4.00646 -18.94335,-11.0625 -0.11588,-0.0653 -0.18739,-0.11647 -0.29688,-0.17969 -0.6968,-0.43832 -1.35225,-0.85507 -1.79492,-1.15625 -0.0114,-0.008 -0.0161,-0.0119 -0.0273,-0.0195 -0.81764,-0.61402 -1.16667,-1.0696 -0.91406,-1.31641 0.23109,-0.0763 0.7904,-0.10501 1.64258,-0.11523 0.33644,0.0157 0.69444,0.0402 1.07031,0.0801 3.41091,0.36219 4.80078,0.34702 4.80078,-0.0527 0,-0.3648 -3.20892,-5.24783 -4.97461,-7.57031 -1.51014,-1.98637 -3.82045,-3.94428 -6.54492,-5.54688 -3.84975,-2.26446 -6.60618,-3.3183 -12.16015,-4.64453 -3.14204,-0.75029 -7.32032,-1.07872 -11.46289,-1.00586 z"
         style="display:inline;fill:#008000;fill-opacity:1;stroke-width:0.31999999" />
      <g
         id="g846">
        <path
           transform="translate(-14.174107,64.255952)"
           style="display:inline;fill:#000000;stroke-width:0.08466666"
           d="m 79.420593,109.06177 c 0,-2.36253 0.0065,-2.46177 0.171693,-2.6035 0.387144,-0.33222 7.093872,-4.38813 9.721502,-5.8791 4.523743,-2.566849 5.497068,-3.100659 8.313437,-4.559399 1.46504,-0.75881 3.692405,-1.95883 4.949705,-2.66671 1.2573,-0.70788 2.5146,-1.40257 2.794,-1.54375 0.96955,-0.48994 1.51361,-1.34514 1.21387,-1.9081 -0.41817,-0.7854 -5.52441,-5.41637 -7.711175,-6.99344 -0.695241,-0.50139 -0.777866,-0.53791 -1.366761,-0.60395 -0.948964,-0.10642 -3.197565,-0.79719 -4.109565,-1.26246 -0.185757,-0.0948 -0.643403,-0.45815 -1.01699,-0.80753 l -0.679248,-0.63522 h -1.006954 c -2.184291,0 -5.717715,-0.56477 -6.906906,-1.10398 -0.306135,-0.13881 -0.556608,-0.27897 -0.556608,-0.31146 0,-0.0325 0.142603,-0.20513 0.316896,-0.38362 0.262122,-0.26844 0.295049,-0.33834 0.1905,-0.40444 -0.324719,-0.20529 -0.939567,0.004 -2.920396,0.99618 -0.745067,0.37303 -1.983317,0.93367 -2.751667,1.24587 -0.76835,0.31219 -1.64465,0.69235 -1.947333,0.8448 -0.302683,0.15244 -2.360083,1.06964 -4.572,2.03821 -4.387301,1.92115 -4.064718,1.74144 -6.815666,3.79707 -1.703804,1.27316 -2.523272,1.95706 -6.561667,5.4761 -7.926484,6.90712 -9.164011,7.91796 -10.54777,8.615629 -0.555682,0.28016 -1.391255,0.52563 -1.78925,0.52563 -0.911923,0 -1.821661,-0.64961 -1.931021,-1.378879 -0.06121,-0.40817 0.03035,-0.93116 0.258725,-1.47773 0.17976,-0.43022 0.26268,-0.27692 0.202047,0.37356 -0.03421,0.36696 -0.01859,0.65535 0.04276,0.78972 0.08684,0.19019 0.143602,0.2107 0.559409,0.20219 1.375674,-0.0282 5.085549,-2.54976 12.612432,-8.57265 3.7126,-2.97076 6.519333,-5.27999 6.519333,-5.36375 0,-0.0951 -0.03311,-0.0769 -2.497667,1.373 -5.06131,2.97757 -5.998028,3.47121 -6.586866,3.47121 -0.413359,0 -0.9908,-0.20405 -0.9908,-0.35013 0,-0.0423 0.104775,-0.1193 0.232833,-0.17121 0.900679,-0.36509 1.988279,-0.96943 4.847167,-2.69337 4.898308,-2.95375 7.275827,-4.07154 15.218832,-7.15511 0.570442,-0.22146 1.037167,-0.43702 1.037167,-0.47902 0,-0.042 -0.08572,-0.0576 -0.1905,-0.0348 -0.932271,0.20376 -2.526034,0.5002 -3.420148,0.63614 -2.25345,0.34261 -3.436381,0.32945 -3.808192,-0.0424 -0.353728,-0.35372 -0.213934,-0.42159 0.879577,-0.42702 0.664889,-0.003 1.30983,-0.0671 1.949487,-0.19292 3.251265,-0.63941 7.999442,-2.51555 10.637814,-4.2033 0.652935,-0.41768 1.564669,-0.71961 2.172962,-0.71961 0.404445,0 0.532288,0.0384 0.756637,0.22716 0.257574,0.21673 0.290399,0.22287 0.715263,0.13375 0.679357,-0.14249 2.120701,-0.72636 3.848862,-1.55911 0.858786,-0.41382 1.601736,-0.73618 1.651,-0.71636 0.148082,0.0596 -1.243722,1.33541 -2.379332,2.18105 -0.783449,0.5834 -1.018684,0.79866 -0.893637,0.81773 0.4201,0.0641 3.176915,-1.15417 5.214537,-2.30433 0.626102,-0.35341 1.160861,-0.64256 1.188352,-0.64256 0.127127,0 0.0074,0.17778 -0.539219,0.80039 -1.252813,1.42708 -2.659891,2.43606 -4.738335,3.39772 -0.773137,0.35772 -1.329807,0.66476 -1.345409,0.74209 -0.0416,0.20617 0.745036,0.39097 2.029746,0.47683 1.20802,0.0807 2.81021,0.0164 5.574534,-0.22387 2.11069,-0.18345 5.138653,-0.19471 5.66623,-0.0211 0.20601,0.0678 0.38781,0.16303 0.404,0.2116 0.0176,0.0528 -0.49281,0.17782 -1.268617,0.3108 -1.353578,0.23201 -2.572058,0.58643 -3.35795,0.97672 -0.817974,0.40623 -0.717941,0.46618 1.364403,0.81767 5.442094,0.91859 9.766984,0.0814 14.955234,-2.89515 0.52634,-0.30196 0.97437,-0.53162 0.99564,-0.51035 0.0213,0.0213 -0.34,0.33028 -0.80281,0.68671 -0.88963,0.68515 -1.77591,1.19086 -4.32931,2.4703 -1.41986,0.71145 -1.75758,0.84153 -3.51367,1.35337 -2.07408,0.60452 -2.49315,0.75109 -2.49315,0.87195 0,0.042 0.1969,0.33647 0.43757,0.65438 0.24066,0.31791 1.10093,1.51421 1.9117,2.65846 0.81078,1.14424 1.55667,2.13759 1.65755,2.20744 0.10087,0.0699 0.3994,0.32433 0.66339,0.56552 0.27553,0.25173 0.6183,0.47693 0.80472,0.52869 0.44596,0.12384 1.71575,0.10894 2.49018,-0.0292 0.55927,-0.0998 0.77618,-0.1987 1.69333,-0.77229 1.98344,-1.24045 3.93073,-2.51382 4.28865,-2.80443 0.70625,-0.57344 3.44561,-4.24441 6.82393,-9.14463 0.45562,-0.66086 0.47385,-0.87431 0.0747,-0.87431 -0.40219,0 -5.02474,0.4896 -6.85998,0.72657 -0.94597,0.12215 -1.74171,0.20034 -1.7683,0.17374 -0.0622,-0.0622 1.65694,-1.76187 3.47365,-3.43447 0.78049,-0.71858 1.66908,-1.59202 1.97464,-1.94099 0.6465,-0.73832 1.16125,-1.48564 1.11627,-1.62059 -0.0173,-0.0519 -0.25933,0.10951 -0.53787,0.35861 -1.26533,1.13157 -2.60903,1.99731 -3.53789,2.27944 -0.80118,0.24335 -0.89939,0.10412 -0.21069,-0.29871 2.63294,-1.54005 5.24288,-4.97339 6.7948,-8.93846 0.39503,-1.009298 0.85627,-2.605978 1.03972,-3.599268 0.14996,-0.81195 0.20203,-3.1306 0.0871,-3.8777 -0.08,-0.52 0.0356,-0.5131 0.26312,0.0157 0.26827,0.62361 0.25369,2.78892 -0.035,5.19818 -0.29568,2.467588 -0.71502,3.978688 -1.74273,6.279928 -0.68644,1.53708 -0.82615,1.78243 -1.51136,2.65415 -1.07714,1.37033 -2.55768,2.91507 -3.50137,3.65321 -0.44971,0.35175 -0.81346,0.69976 -0.81547,0.78019 -0.002,0.0799 0.0786,0.18918 0.17906,0.24296 0.10635,0.0569 1.37127,0.168 3.02683,0.2658 2.44136,0.14423 2.92807,0.15231 3.4368,0.0571 0.65893,-0.12339 0.59244,-0.0709 1.65565,-1.30772 0.39838,-0.46344 1.14133,-1.22512 1.651,-1.69262 2.84103,-2.60596 9.65072,-7.89035 13.11869,-10.180238 0.88477,-0.58421 2.51284,-1.70586 3.61794,-2.49255 2.9254,-2.08252 4.62,-3.07379 7.26173,-4.24782 l 0.97366,-0.43272 1.69334,0.004 c 1.72665,0.004 2.3922,0.0604 5.08,0.43138 2.19724,0.3033 2.11511,0.40542 -0.254,0.31583 -1.07104,-0.0405 -2.86174,-0.0721 -3.97934,-0.0702 -2.64732,0.005 -3.04979,0.0827 -4.59239,0.89182 -3.34426,1.75418 -6.18366,3.6308 -6.10101,4.03226 0.014,0.0678 0.29572,0.22837 0.62611,0.35672 0.71561,0.27801 1.72515,0.81934 3.16696,1.69818 1.41107,0.860108 1.94398,1.215988 1.94581,1.299418 0.003,0.12096 -0.33628,-0.0277 -2.19981,-0.964568 -2.12971,-1.07075 -3.11996,-1.43297 -3.91746,-1.43297 -0.51675,0 -0.58636,0.0249 -1.21518,0.43501 -1.31512,0.85767 -4.91433,3.659058 -8.03303,6.252388 -2.29371,1.90732 -3.02022,2.54781 -4.98128,4.39149 -2.62016,2.46335 -3.58163,3.71147 -6.34522,8.23699 -1.05617,1.72953 -2.82707,4.38371 -3.92105,5.87676 -0.76677,1.04649 -0.98178,1.27643 -1.78672,1.91076 -1.11911,0.8819 -4.93177,3.66879 -6.37606,4.66062 -2.47633,1.70056 -10.12545,6.33652 -18.584331,11.263529 -1.397,0.81371 -3.1115,1.85358 -3.81,2.31083 -0.6985,0.45724 -2.6035,1.68863 -4.233334,2.73641 -1.629833,1.04779 -3.382178,2.18484 -3.8941,2.5268 -0.511922,0.34196 -0.978647,0.62174 -1.037167,0.62174 -0.08298,0 -0.106399,-0.54071 -0.106399,-2.45617 z M 70.86926,76.993201 c 0,-0.0427 0.508413,-0.62651 1.129808,-1.2973 1.875619,-2.02473 4.111875,-4.11785 5.482779,-5.13186 0.614249,-0.45433 0.745685,-0.59453 0.839601,-0.89555 0.140833,-0.45139 0.735577,-1.62407 0.970924,-1.91441 0.0983,-0.12126 0.45627,-0.61301 0.795497,-1.09277 1.065155,-1.50644 1.945457,-2.55379 3.349449,-3.98504 2.534453,-2.583648 5.137025,-4.674898 8.598608,-6.909268 1.749406,-1.12919 4.655461,-2.59264 6.106669,-3.07522 1.05518,-0.35089 2.304915,-0.60848 2.415525,-0.49787 0.0748,0.0748 0.19071,0.005 -1.452525,0.87664 -6.361442,3.37488 -11.547893,7.46754 -16.560039,13.067628 -0.976458,1.091 -2.44763,2.89998 -2.44763,3.00966 0,0.0536 0.228434,0.23836 0.507632,0.41069 0.621489,0.38361 0.735802,0.65502 0.398192,0.94542 -0.121265,0.1043 -0.727109,0.46416 -1.34632,0.79967 -4.068503,2.20447 -5.532148,3.12485 -7.464395,4.69381 -0.46072,0.3741 -0.947046,0.76866 -1.080724,0.87681 -0.133678,0.10815 -0.243051,0.16168 -0.243051,0.11896 z m 13.800666,-6.11508 c 0,-0.25275 2.633697,-2.02965 4.008027,-2.70413 1.556629,-0.76395 2.147008,-0.90797 5.744465,-1.40135 2.741873,-0.37604 4.556777,-0.88814 6.471232,-1.82592 1.25537,-0.61494 2.998,-1.76102 4.16188,-2.73717 0.47846,-0.401278 0.91043,-0.729608 0.95994,-0.729608 0.11115,0 0.0327,0.5157 -0.18739,1.232418 -0.20431,0.66523 -0.67899,1.34245 -1.58227,2.25743 -0.4008,0.406 -0.70995,0.75697 -0.687,0.77992 0.0563,0.0563 1.49634,-0.62179 2.74345,-1.29189 4.29019,-2.305208 6.80066,-4.708208 7.41071,-7.093478 0.25162,-0.98383 0.19406,-1.80465 -0.21311,-3.03873 -0.10938,-0.33152 0.72073,0.67877 1.00547,1.2237 0.40972,0.78417 0.55993,1.36613 0.55993,2.16941 0,1.63553 -1.00002,3.5056 -2.87384,5.374138 -2.64535,2.63791 -6.95862,4.6377 -13.677205,6.34125 -0.74435,0.18874 -1.428789,0.34316 -1.520971,0.34316 -0.145355,0 -0.151146,-0.0151 -0.04363,-0.11362 0.06819,-0.0625 0.790726,-0.51684 1.605641,-1.00966 1.528095,-0.92412 2.242785,-1.40349 2.182415,-1.46386 -0.0191,-0.0191 -0.33449,0.0808 -0.70093,0.22188 -2.068595,0.79654 -4.94763,1.32771 -8.449437,1.55888 -1.040012,0.0687 -2.174157,0.18375 -2.520322,0.25576 -1.068434,0.22226 -2.27672,0.65352 -3.35989,1.19922 -0.570442,0.28739 -1.037167,0.4909 -1.037167,0.45225 z M 122.2196,50.466443 c -0.51224,-0.422817 -1.07269,-0.841902 -1.24546,-0.931296 -0.44667,-0.231115 -1.49477,-0.215454 -2.79877,0.04182 -1.47594,0.291198 -2.04613,0.335341 -2.81874,0.218227 -0.70984,-0.1076 -1.52575,-0.36936 -1.71983,-0.551756 -0.0958,-0.09001 -0.0141,-0.118849 0.46566,-0.164512 2.03371,-0.193556 3.49119,-0.500199 4.2921,-0.903024 0.19453,-0.09785 0.728,-0.424185 1.18546,-0.725199 1.27104,-0.836334 1.45668,-0.890717 2.24322,-0.65714 0.42761,0.126989 1.11602,0.700095 1.11602,0.9291 0,0.05166 -0.19068,0.142809 -0.42374,0.202541 -0.23306,0.05973 -0.50776,0.176627 -0.61043,0.259767 l -0.18668,0.151165 0.26233,0.298778 c 0.48597,0.553488 0.78762,1.060564 1.04308,1.753409 0.26678,0.72353 0.29456,0.84698 0.19061,0.84692 -0.0349,-2e-5 -0.4826,-0.34597 -0.99483,-0.7688 z m -24.426341,0.15077 c 0,-0.0605 0.03477,-0.14626 0.07726,-0.1905 0.151108,-0.15732 1.330916,-2.459613 1.517366,-2.961003 0.10429,-0.280446 0.34279,-0.689104 0.53001,-0.908128 0.187215,-0.219024 1.243085,-1.174128 2.346385,-2.122453 1.10329,-0.948325 2.32897,-2.082716 2.72373,-2.520871 2.00224,-2.222358 2.58802,-2.775809 3.27862,-3.097689 0.41347,-0.192714 0.45587,-0.19723 0.69429,-0.07393 0.36733,0.189949 0.66218,0.162512 0.9093,-0.08461 0.1668,-0.166801 0.20363,-0.267931 0.16188,-0.4445 -0.0747,-0.315737 -0.35011,-0.524906 -0.69121,-0.524906 -0.18917,0 -0.28696,-0.04029 -0.28696,-0.118229 0,-0.175721 0.53285,-0.610898 0.89393,-0.730062 0.69424,-0.229123 1.74263,0.101145 2.15373,0.67848 0.65705,0.922737 -0.12748,2.329569 -1.46617,2.629153 -0.53164,0.118976 -1.02521,0.01225 -1.39936,-0.302569 -0.1369,-0.115192 -0.32577,-0.20944 -0.41971,-0.20944 -0.22643,0 -1.28866,1.075518 -1.89506,1.918753 -0.88709,1.233577 -1.50802,2.577269 -1.50802,3.263373 0,0.661168 0.25122,0.930391 1.82033,1.950733 1.15147,0.748764 1.90416,1.35913 1.80331,1.462329 -0.0326,0.03341 -0.48984,-0.02019 -1.016,-0.119105 -3.74558,-0.704141 -6.12316,-0.206594 -9.142245,1.913162 -0.549975,0.386152 -1.019181,0.702092 -1.042679,0.702092 -0.0235,0 -0.04272,-0.0495 -0.04272,-0.11007 z m 1.919346,-4.885267 c -0.0819,-0.232428 -0.11537,-2.800617 -0.0512,-3.927068 0.0615,-1.079533 0.20651,-1.849017 0.474665,-2.519176 0.17135,-0.428244 0.3661,-0.433323 0.36764,-0.0096 0.001,0.383902 0.0786,0.6985 0.17143,0.6985 0.0375,0 0.35847,-0.598805 0.71327,-1.330679 1.05618,-2.178601 2.23151,-3.765581 3.705,-5.002631 1.608,-1.349974 2.93746,-1.988526 4.91409,-2.360285 0.60632,-0.114035 1.20702,-0.145281 2.67319,-0.139048 2.30933,0.0098 2.32337,-0.116981 0.0581,-0.524846 -0.96893,-0.174459 -1.09175,-0.344195 -0.19244,-0.26595 0.99047,0.08618 2.45685,0.523897 3.45017,1.029886 l 0.889,0.452851 2.159,0.08967 c 2.0301,0.08432 3.125,0.220171 3.31632,0.411489 0.0877,0.08772 -0.40477,0.386631 -1.70766,1.036428 -1.25297,0.624903 -4.07399,3.070993 -3.82679,3.318192 0.16349,0.163492 2.03626,-0.06297 3.36113,-0.406448 0.65193,-0.169015 1.3282,-0.321929 1.50283,-0.339807 l 0.3175,-0.03251 v 0.415249 c 0,0.360893 -0.0582,0.501419 -0.4445,1.073568 -0.24448,0.362077 -0.81598,1.066479 -1.27,1.565338 l -0.8255,0.907017 v 0.508004 c 0,0.279403 0.0761,0.75435 0.16908,1.055438 0.13443,0.435226 0.25157,0.624478 0.5715,0.923312 0.22133,0.206733 0.56434,0.466717 0.76225,0.577742 0.41177,0.230996 0.44946,0.356665 0.14817,0.493944 -0.27215,0.124001 -0.26648,0.210903 0.0387,0.59187 0.26522,0.331129 0.79212,1.419393 0.74893,1.546831 -0.0141,0.04153 -0.4082,-0.295402 -0.87583,-0.74873 -0.46764,-0.453328 -1.0128,-0.919483 -1.21147,-1.035899 -0.78872,-0.462161 -0.90859,-0.564613 -1.09165,-0.933013 -0.13462,-0.270917 -0.20621,-0.610348 -0.24551,-1.164043 -0.0648,-0.913462 -0.10934,-0.94315 -0.75902,-0.506444 -0.53568,0.360076 -1.1097,1.084643 -1.56667,1.97756 -0.2026,0.395892 -0.3816,0.680126 -0.39776,0.631633 -0.0162,-0.04849 0.0117,-0.353136 0.062,-0.676984 0.12723,-0.820008 0.11495,-1.902339 -0.0254,-2.238213 -0.0642,-0.153669 -0.21661,-0.357954 -0.33867,-0.453966 -0.30418,-0.239264 -0.28025,-0.317587 0.13504,-0.44201 1.0562,-0.316443 2.9468,-1.297983 4.00849,-2.081074 0.67174,-0.495471 1.75573,-1.506664 1.34954,-1.258916 -1.2899,0.786761 -1.67534,0.994774 -2.27397,1.227218 -0.67956,0.26387 -1.48031,0.418448 -2.97536,0.574365 -1.03586,0.108029 -1.56677,0.318042 -2.81131,1.112061 -0.27006,0.172298 -0.30969,0.06899 -0.15178,-0.395646 0.28618,-0.84204 0.11726,-1.917712 -0.36895,-2.349484 -0.25468,-0.226166 -0.2274,-0.311397 0.19232,-0.60071 0.20267,-0.1397 0.71409,-0.548699 1.13649,-0.908885 0.88896,-0.758027 1.0508,-1.070786 0.86866,-1.678712 -0.1405,-0.468931 -0.61445,-0.969168 -1.09331,-1.153956 -1.83445,-0.707889 -5.76541,1.148533 -7.61104,3.594361 -0.27192,0.360355 -0.78078,1.017142 -1.13078,1.459525 -1.48324,1.874702 -2.07907,2.829482 -3.64572,5.841999 -1.383325,2.659997 -1.313055,2.538601 -1.372245,2.370667 z M 115.84452,35.69151 c 1.10621,-0.907543 2.53983,-2.001098 3.26461,-2.49023 0.24151,-0.162983 0.44008,-0.324908 0.44128,-0.359833 0.002,-0.073 -1.03401,-0.06727 -1.90009,0.01052 -0.58571,0.0526 -0.59174,0.05571 -0.84152,0.433984 -0.13837,0.20955 -0.56346,0.78105 -0.94465,1.27 -0.897,1.150594 -1.44826,2.125107 -1.14147,2.017888 0.0444,-0.01552 0.54924,-0.412569 1.12184,-0.882325 z"
           id="path4577"
           inkscape:connector-curvature="0" />
        <path
           style="fill:#ffff00;fill-opacity:1;stroke:none;stroke-width:0.02362351;stroke-opacity:1"
           d="m 98.1613,96.583178 c -1.163494,0.01071 -2.773939,0.590637 -4.217828,1.542542 -0.597911,0.394178 -1.770949,1.468405 -2.439128,2.23345 -0.244631,0.2801 -0.763249,0.94511 -0.763778,0.97927 -1e-4,0.0124 0.01283,0.009 0.02842,-0.006 0.04661,-0.0466 0.125134,-0.0321 0.186034,0.0341 0.03155,0.0342 0.08916,0.0817 0.128158,0.10594 0.039,0.0242 0.0819,0.0444 0.0956,0.0444 0.06835,2.4e-4 0.706298,-0.23477 1.698088,-0.62529 1.02784,-0.40471 1.509562,-0.55725 2.048452,-0.64905 0.310171,-0.0528 0.516128,-0.0655 1.591119,-0.0961 0.784548,-0.0223 1.015762,-0.0462 1.484662,-0.154515 0.144741,-0.03345 0.437745,-0.09673 0.651124,-0.14056 0.42818,-0.08795 0.410662,-0.07946 0.747241,-0.369485 0.360601,-0.310716 0.706346,-0.740699 0.768946,-0.956533 0.0184,-0.06334 0.0328,-0.194521 0.032,-0.29197 -0.003,-0.380405 -0.16295,-0.75959 -0.440284,-1.042831 -0.34194,-0.349219 -0.641427,-0.502269 -1.129647,-0.576707 -0.14619,-0.02228 -0.303009,-0.03202 -0.469223,-0.03049 z"
           id="path4583"
           inkscape:connector-curvature="0" />
      </g>
    </g>
  </g>
</svg>
